# xmcd CD database file
#
# Track frame offsets:
#	150
#	13802
#	27304
#	45456
#	62858
#	74260
#	90462
#	112214
#	128716
#	149418
#	165620
#	184372
#	197724
#	214676
#	227878
#	244830
#	266282
#	283384
#	298686
#	308438
#	321940
#	342342
#
# Disc length: 4772 seconds
#
# Revision: 0
# Processed by: cddbd v1.5.2PL0 Copyright (c) Steve Scherf et al.
# Submitted via: CDex 1.86
#
DISCID=5612a216
DTITLE=Isle-Jazz-Band Borkum - Live in Concert 20.09.2003
DYEAR=2003
DGENRE=Jazz
TTITLE0=Rock Opening
TTITLE1=Pavane in Blue
TTITLE2=Bill Bailey, won't you please come home
TTITLE3=The World is waiting for the sunrise
TTITLE4=bye-bye-Blues
TTITLE5=Creole love call
TTITLE6=i wish, i could shimmy like my sister kate
TTITLE7=Sweet Georgia Brown
TTITLE8=Hiawatha Rag
TTITLE9=China-Town
TTITLE10=Fidgety Feet
TTITLE11=The Faithful Guard
TTITLE12=Down by the Riverside
TTITLE13=At the Jazzband Ball
TTITLE14=Royal Garden Blues
TTITLE15=Carry me back to old Verginia
TTITLE16=When You#re smiling
TTITLE17=All of me
TTITLE18=Mack the Knife
TTITLE19=Sheik of Arabia
TTITLE20=Bourbon Street Parade
TTITLE21=Tiger Rag
EXTD=YEAR: 2003
EXTT0=
EXTT1=
EXTT2=
EXTT3=
EXTT4=
EXTT5=
EXTT6=
EXTT7=
EXTT8=
EXTT9=
EXTT10=
EXTT11=
EXTT12=
EXTT13=
EXTT14=
EXTT15=
EXTT16=
EXTT17=
EXTT18=
EXTT19=
EXTT20=
EXTT21=
PLAYORDER=
